<svg xmlns="http://www.w3.org/2000/svg" version="1.1" xmlns:xlink="http://www.w3.org/1999/xlink" xmlns:svgjs="http://svgjs.dev/svgjs" width="2000" height="2196" viewBox="0 0 2000 2196"><g transform="matrix(1,0,0,1,-1.5839434280464957,0)"><svg viewBox="0 0 255 280" data-background-color="#010536" preserveAspectRatio="xMidYMid meet" height="2196" width="2000" xmlns="http://www.w3.org/2000/svg" xmlns:xlink="http://www.w3.org/1999/xlink"><g id="tight-bounds" transform="matrix(1,0,0,1,0.2019527870759248,0)"><svg viewBox="0 0 254.59609442584812 280" height="280" width="254.59609442584812"><g><svg viewBox="0 0 278.2696 306.0356765319239" height="280" width="254.59609442584812"><g><svg viewBox="0 0 278.2696 306.0356765319239" height="306.0356765319239" width="278.2696"><g id="textblocktransform"><svg viewBox="0 0 278.2696 306.0356765319239" height="306.0356765319239" width="278.2696" id="textblock"><g><svg viewBox="0 0 278.2696 278.2696" height="278.2696" width="278.2696"><g transform="matrix(1,0,0,1,89.94321971048299,93.91998529339205)"><svg viewBox="0 0 98.38316057903405 90.42962941321592" height="90.42962941321592" width="98.38316057903405"><g id="icon-0"><svg xmlns="http://www.w3.org/2000/svg" xmlns:xlink="http://www.w3.org/1999/xlink" version="1.1" x="0" y="0" viewBox="3.0841616374225085 6.8 93.78152378752674 86.2" style="enable-background:new 0 0 100 100;" xml:space="preserve" height="90.42962941321592" width="98.38316057903405" class="icon-jxe-0" data-fill-palette-color="accent" id="jxe-0"><g fill="#ffff00" data-fill-palette-color="accent"><path d="M96.8 58.5C96.7 58.1 96.4 57.8 96 57.6L93 56.1C92.3 55.7 91.5 55.5 90.7 55.3 92.7 51.5 92.2 46.6 89.1 43.2 88.5 42.6 87.6 42.5 87 43.1L85.2 44.7 83.8 46C82.6 47.2 81.7 48.5 81.1 50 80.8 49.8 80.5 49.6 80.2 49.5L77.2 48C76.5 47.6 75.6 47.9 75.2 48.7 73 53 74.7 58.2 79 60.4L80.6 61.2C79.5 63.6 78.3 65.9 76.9 68 76.3 65.6 74.8 63.5 72.4 62.3L69.4 60.8C68.7 60.4 67.8 60.7 67.4 61.5 65.2 65.8 66.9 71 71.2 73.2L72.5 73.8C66.3 80.7 58.6 85.6 49.9 88.1 41.3 85.5 33.6 80.7 27.5 73.8L28.8 73.1C33.1 70.9 34.7 65.6 32.5 61.4 32.1 60.7 31.2 60.4 30.5 60.7L27.5 62.2C25.5 63.3 23.9 65.1 23.2 67.3 23.1 67.5 23.1 67.7 23 67.9 21.6 65.7 20.3 63.4 19.3 61.1L20.9 60.3C22.9 59.2 24.5 57.4 25.2 55.2S25.7 50.6 24.7 48.6C24.3 47.9 23.4 47.6 22.7 47.9L19.7 49.4C19.4 49.6 19.1 49.7 18.8 49.9 18.2 48.4 17.3 47 16.1 45.9L12.9 43C12.3 42.5 11.4 42.5 10.8 43.1 7.7 46.5 7.2 51.3 9.2 55.2 8.4 55.3 7.6 55.6 6.9 56L3.9 57.5C3.2 57.9 2.9 58.8 3.2 59.5 4.2 61.6 6 63.1 8.2 63.8 9.1 64.1 10 64.2 10.9 64.2 12.3 64.2 13.7 63.9 14.9 63.2L16.6 62.4C17.5 64.3 18.4 66.1 19.5 67.9 17.9 67.7 16.2 68 14.7 68.8L11.7 70.3C11 70.7 10.7 71.6 11 72.3 12 74.4 13.8 75.9 16 76.6 16.9 76.9 17.8 77 18.7 77 20.1 77 21.5 76.7 22.7 76L24.6 75C30.1 81.3 36.8 86.1 44.3 89.2 42.4 89.5 40.5 89.8 38.5 89.9L38.7 92.9C42.5 92.7 46.2 92.1 49.8 91.1 53.5 92.1 57.3 92.8 61.2 93L61.4 90C59.3 89.9 57.3 89.6 55.3 89.3 62.9 86.3 69.7 81.5 75.3 75.1L77.2 76.1C78.4 76.7 79.8 77.1 81.2 77.1 82.1 77.1 83 77 83.9 76.7 86.1 76 87.9 74.5 88.9 72.4 89.3 71.7 89 70.8 88.2 70.4L85.2 68.9C83.7 68.1 82 67.9 80.4 68 81.4 66.3 82.4 64.4 83.3 62.5L85 63.3C86.2 63.9 87.6 64.3 89 64.3 89.9 64.3 90.8 64.2 91.7 63.9 93.9 63.2 95.7 61.7 96.7 59.6 96.9 59.3 96.9 58.9 96.8 58.5M26.1 68.4C26.6 66.9 27.6 65.8 28.9 65.1L30.4 64.4C30.9 66.8 29.7 69.5 27.5 70.7L26 71.4C25.7 70.3 25.8 69.3 26.1 68.4M21.1 52.2L22.6 51.5C22.8 52.5 22.8 53.5 22.4 54.4 21.9 55.9 20.9 57 19.6 57.7L18.1 58.4C17.6 56.1 18.8 53.4 21.1 52.2M12.1 46.5L14.1 48.3C15.3 49.5 16.2 51 16.4 52.6 15.7 53.7 15.2 55 15 56.3 14.3 55.9 13.6 55.7 12.9 55.5 10.7 53 10.4 49.3 12.1 46.5M13.6 60.8C12.2 61.5 10.6 61.6 9.2 61.2 8.3 60.9 7.4 60.4 6.8 59.7L8.3 59C10.7 57.8 13.4 58.3 15.1 60.2zM21.4 73.6C20 74.3 18.4 74.4 17 74 16.1 73.7 15.2 73.2 14.6 72.5L16.1 71.8C18.5 70.6 21.2 71.1 22.9 73zM85.9 48.3L87.9 46.5C89.6 49.3 89.3 53 87.1 55.5 86.4 55.7 85.6 55.9 85 56.3 84.9 55.8 84.8 55.2 84.6 54.7 84.4 53.9 84 53.2 83.6 52.6 83.8 51 84.7 49.5 85.9 48.3M77.4 51.5L78.9 52.2C80.2 52.9 81.2 54.1 81.7 55.5 82 56.4 82 57.3 81.9 58.1 81.9 58.2 81.8 58.3 81.8 58.4L80.4 57.7C78.1 56.6 76.9 53.9 77.4 51.5M69.6 64.3L71.1 65C72.4 65.7 73.4 66.9 73.9 68.3 74.2 69.3 74.3 70.3 74.1 71.2L72.6 70.5C70.3 69.4 69.1 66.7 69.6 64.3M83.9 71.6L85.4 72.3C84.8 73 83.9 73.5 83 73.8 81.5 74.3 79.9 74.1 78.6 73.4L77.1 72.7C78.8 71 81.5 70.4 83.9 71.6M90.8 61.1C89.3 61.6 87.7 61.4 86.4 60.7L84.9 60C86.6 58.2 89.3 57.6 91.7 58.8L93.2 59.5C92.6 60.3 91.7 60.8 90.8 61.1" fill="#000000" data-fill-palette-color="accent"></path><path d="M41.7 34.9C41.6 35.5 41.8 36 42.3 36.4 42.8 36.7 43.4 36.8 43.9 36.5L49 33.9 54.1 36.5C54.3 36.6 54.6 36.7 54.8 36.7 55.1 36.7 55.4 36.6 55.7 36.4 56.2 36.1 56.4 35.5 56.3 34.9L55.3 29.3 59.4 25.3C59.8 24.9 60 24.3 59.8 23.8S59.2 22.9 58.6 22.8L52.9 21.9 50.3 16.7C50 16.2 49.5 15.9 49 15.9S47.9 16.2 47.7 16.7L45.1 21.9 39.4 22.8C38.8 22.9 38.4 23.3 38.2 23.8S38.2 24.9 38.6 25.3L42.7 29.3zM46.3 24.7C46.8 24.6 47.2 24.3 47.4 23.9L49 20.7 50.6 23.9C50.8 24.3 51.2 24.6 51.7 24.7L55.2 25.2 52.6 27.7C52.2 28 52.1 28.5 52.2 29L52.8 32.4 49.7 30.8C49.5 30.7 49.2 30.6 49 30.6S48.5 30.7 48.3 30.8L45.2 32.4 45.8 29C45.9 28.5 45.7 28 45.4 27.7L42.8 25.2z" fill="#000000" data-fill-palette-color="accent"></path><path d="M32.1 30.3V32.8C32.1 40 36.9 46 43.4 47.9L39.3 60.9C39.2 61.4 39.2 61.9 39.5 62.2 39.8 62.6 40.2 62.8 40.7 62.8H57.1C57.6 62.8 58 62.6 58.3 62.2S58.7 61.3 58.5 60.9L54.4 47.9C61.2 46.1 66 40 66 32.8V30.3C72.8 29.5 78.1 23.7 78.1 16.7V14.9C78.1 14.1 77.4 13.4 76.6 13.4H66V8.3C66 7.5 65.3 6.8 64.5 6.8H33.6C32.8 6.8 32.1 7.5 32.1 8.3V13.4H21.3C20.5 13.4 19.8 14.1 19.8 14.9V16.7C19.8 23.8 25.2 29.6 32.1 30.3M55.2 59.9H42.8L46.4 48.5C46.9 48.5 47.4 48.6 47.9 48.6H50.2C50.7 48.6 51.1 48.6 51.6 48.5zM75.1 16.4V16.7C75.1 22.1 71.1 26.5 66 27.3V16.4zM35.1 9.8H63V32.8C63 39.9 57.3 45.6 50.2 45.6H47.9C40.8 45.6 35.1 39.9 35.1 32.8zM22.8 16.4H32.1V27.3C26.9 26.6 22.8 22.1 22.8 16.7z" fill="#000000" data-fill-palette-color="accent"></path></g></svg></g></svg></g><g id="text-0"><path d="M28.967 95.588l-20.33-18.85 1.172-3.064 22.252 20.712-1.66 4.341-30.401 0.608 1.251-3.273z" fill="#000000" data-fill-palette-color="primary"></path><path d="M78.345 38.853l-2.665 1.77-11.432-17.204 2.665-1.771zM63.092 18.789c-0.59 0.392-1.137 0.557-1.641 0.494-0.498-0.066-0.915-0.352-1.251-0.858v0c-0.336-0.506-0.44-1.004-0.313-1.495 0.134-0.494 0.496-0.937 1.086-1.329v0c0.59-0.392 1.139-0.554 1.647-0.486 0.502 0.072 0.921 0.361 1.257 0.866v0c0.336 0.506 0.438 1.001 0.307 1.487-0.137 0.488-0.501 0.929-1.092 1.321z" fill="#000000" data-fill-palette-color="primary"></path><path d="M137.597 21.889l0.192-20.656 2.663 0.025 0.228 2.706 0.203 0.002c0.812-0.897 1.834-1.6 3.067-2.108 1.233-0.508 2.498-0.757 3.795-0.745v0c0.722 0.007 1.427 0.077 2.114 0.212v0l-0.027 2.916c-0.62-0.107-1.369-0.165-2.247-0.173v0c-1.168-0.011-2.368 0.214-3.601 0.676-1.24 0.468-2.255 1.16-3.047 2.078v0l-0.14 15.097z" fill="#000000" data-fill-palette-color="primary"></path><path d="M221.889 28.779c1.616 1.187 2.802 2.355 3.557 3.504 0.752 1.155 1.058 2.381 0.918 3.677-0.149 1.298-0.791 2.719-1.925 4.264v0l-7.852 10.692-2.179-1.6 1.205-2.017-0.171-0.126c-1.108 0.208-2.299 0.142-3.573-0.199-1.273-0.331-2.453-0.897-3.541-1.696v0c-1.186-0.871-2.063-1.804-2.631-2.799-0.572-0.989-0.823-1.987-0.755-2.991 0.068-1.005 0.442-1.97 1.121-2.896v0c1.059-1.442 2.403-2.172 4.033-2.189 1.633-0.023 3.688 0.703 6.164 2.177v0l4.871 2.811 0.857-1.167c0.771-1.05 1.196-1.999 1.274-2.847 0.072-0.851-0.154-1.654-0.681-2.409-0.53-0.749-1.364-1.542-2.501-2.377v0c-0.784-0.575-1.671-1.123-2.663-1.641-0.983-0.521-1.992-0.948-3.029-1.282v0l1.486-2.024c0.974 0.305 1.996 0.737 3.068 1.297 1.067 0.566 2.049 1.178 2.947 1.838zM210.312 43.808c0.92 0.675 1.93 1.153 3.03 1.434 1.101 0.281 2.23 0.327 3.39 0.14v0l3.171-4.318-4.712-2.719c-1.608-0.913-2.909-1.365-3.903-1.358-0.988 0.011-1.806 0.458-2.453 1.339v0c-0.667 0.909-0.888 1.831-0.663 2.767 0.229 0.931 0.943 1.836 2.14 2.715z" fill="#000000" data-fill-palette-color="primary"></path><path d="M240.968 103.28l0.722-2.413c1.899 0.764 3.745 1.165 5.537 1.204 1.795 0.045 3.708-0.259 5.738-0.914v0l16.576-5.346 0.982 3.046-16.45 5.305c-2.274 0.733-4.445 1.029-6.513 0.887-2.074-0.14-4.271-0.729-6.592-1.769zM274.456 95.843c-0.218-0.675-0.227-1.243-0.028-1.703 0.19-0.466 0.578-0.793 1.163-0.982v0c0.578-0.186 1.087-0.148 1.526 0.115 0.437 0.256 0.765 0.722 0.982 1.396v0c0.22 0.681 0.227 1.253 0.022 1.716-0.205 0.463-0.597 0.788-1.175 0.975v0c-0.585 0.189-1.089 0.153-1.514-0.108-0.431-0.258-0.756-0.728-0.976-1.409z" fill="#000000" data-fill-palette-color="primary"></path><path d="M14.246 188.633l28.684 0.398 1.223 3.164-31.445-0.492-1.734-4.486 22.931-21.534 1.307 3.382z" fill="#000000" data-fill-palette-color="primary"></path><path d="M67.123 256.947l-2.763-1.826 11.788-17.832 2.762 1.826zM80.096 234.327c-0.614-0.406-0.994-0.859-1.14-1.36-0.137-0.503-0.032-1.017 0.314-1.54v0c0.35-0.529 0.783-0.83 1.3-0.901 0.526-0.073 1.096 0.093 1.709 0.499v0c0.614 0.406 0.987 0.863 1.12 1.371 0.137 0.503 0.03 1.019-0.319 1.549v0c-0.346 0.524-0.778 0.821-1.294 0.893-0.513 0.066-1.076-0.104-1.69-0.511z" fill="#000000" data-fill-palette-color="primary"></path><path d="M137.74 277.157l-0.206-21.375 2.764-0.027 0.28 2.803 0.213-0.002c0.821-0.946 1.867-1.692 3.138-2.238 1.264-0.552 2.567-0.835 3.91-0.848v0c0.749-0.007 1.479 0.05 2.189 0.171v0l0.029 3.018c-0.649-0.095-1.426-0.138-2.33-0.13v0c-1.208 0.012-2.448 0.267-3.719 0.765-1.264 0.505-2.3 1.241-3.108 2.207v0l0.151 15.624z" fill="#000000" data-fill-palette-color="primary"></path><path d="M209.022 231.795c1.677-1.229 3.199-2.036 4.567-2.419 1.373-0.387 2.677-0.31 3.912 0.233 1.235 0.543 2.439 1.614 3.613 3.215v0l8.118 11.074-2.254 1.653-1.627-1.808-0.171 0.125c-0.145 1.161-0.579 2.316-1.302 3.466-0.728 1.153-1.653 2.141-2.775 2.963v0c-1.23 0.902-2.423 1.479-3.577 1.731-1.16 0.256-2.225 0.196-3.196-0.181-0.969-0.386-1.803-1.055-2.502-2.008v0c-1.094-1.492-1.4-3.046-0.919-4.662 0.481-1.616 1.835-3.417 4.063-5.402v0l4.294-3.939-0.88-1.2c-0.802-1.094-1.612-1.811-2.429-2.149-0.813-0.333-1.672-0.356-2.575-0.071-0.909 0.29-1.952 0.866-3.128 1.728v0c-0.811 0.595-1.63 1.299-2.456 2.114-0.816 0.816-1.548 1.679-2.195 2.588v0l-1.539-2.098c0.601-0.859 1.345-1.727 2.234-2.605 0.885-0.883 1.792-1.665 2.724-2.348zM220.265 247.885c0.953-0.698 1.738-1.546 2.355-2.542 0.619-1.006 1.015-2.109 1.19-3.308v0l-3.275-4.468-4.142 3.803c-1.404 1.305-2.256 2.449-2.557 3.432-0.297 0.988-0.112 1.936 0.554 2.845v0c0.69 0.942 1.531 1.443 2.521 1.504 0.994 0.066 2.112-0.356 3.354-1.266z" fill="#000000" data-fill-palette-color="primary"></path><path d="M277.96 187.055l-2.069 1.586c-1.137-1.789-2.442-3.245-3.916-4.369-1.482-1.12-3.273-2.02-5.372-2.702v0l-17.144-5.564 1.022-3.149 17.019 5.523c2.344 0.761 4.343 1.828 5.997 3.203 1.657 1.368 3.144 3.192 4.463 5.472zM245.368 172.996c-0.227 0.7-0.565 1.183-1.013 1.449-0.444 0.275-0.968 0.314-1.571 0.119v0c-0.597-0.194-1.001-0.534-1.212-1.022-0.207-0.479-0.196-1.068 0.031-1.768v0c0.227-0.7 0.565-1.183 1.013-1.449 0.457-0.27 0.984-0.309 1.581-0.115v0c0.604 0.196 1.004 0.535 1.202 1.019 0.207 0.479 0.196 1.068-0.031 1.767z" fill="#000000" data-fill-palette-color="primary"></path><path d="M1.261 139.021c0-6.15 4.986-11.136 11.136-11.137 6.15 0 11.136 4.986 11.136 11.137 0 6.15-4.986 11.136-11.136 11.136-6.15 0-11.136-4.986-11.136-11.136z" fill="#000000" data-fill-palette-color="primary"></path><path d="M254.862 139.021c0-6.15 4.986-11.136 11.137-11.137 6.15 0 11.136 4.986 11.136 11.137 0 6.15-4.986 11.136-11.136 11.136-6.15 0-11.136-4.986-11.137-11.136z" fill="#000000" data-fill-palette-color="primary"></path></g><g id="text-1"></g></svg></g><g transform="matrix(1,0,0,1,53.1494936,296.67364000000003)"><svg viewBox="0 0 171.97061280000003 9.362036531923891" height="9.362036531923891" width="171.97061280000003"><g transform="matrix(1,0,0,1,0,0)"><svg width="171.97061280000003" viewBox="2.83 -33.86 831.38 45.26" height="9.362036531923891" data-palette-color="#fbfbf8"><path d="M21.14 0L21.14 0 9.77 0Q13.35-12.96 14.87-31.64L14.87-31.64Q14.87-31.96 15.66-32.59 16.46-33.23 16.99-33.23L16.99-33.23 27.88-33.23Q24.73-19.97 23.29-1.61L23.29-1.61Q23.29-1.29 22.51-0.65 21.73 0 21.14 0ZM32.57-17.94L32.57-17.94Q32.57-21.29 31.51-25.37 30.44-29.44 29.22-31.27L29.22-31.27Q29.37-32.4 29.96-33.23L29.96-33.23 37.55-33.23Q36.77-25.88 35.47-19.56L35.47-19.56Q35.38-19.19 34.29-18.57 33.2-17.94 32.57-17.94ZM2.83-17.97L2.83-17.97Q3.03-20.83 3.76-25.48 4.49-30.13 4.86-31.49L4.86-31.49Q5.03-31.98 5.7-32.6 6.37-33.23 6.81-33.23L6.81-33.23 14.23-33.23Q11.74-30.25 10.41-27.73 9.08-25.22 7.85-22.86 6.62-20.51 5.96-19.29L5.96-19.29Q5.81-19.02 4.6-18.49 3.39-17.97 2.83-17.97ZM57.86-25.07L57.86-25.07Q52-19.46 52-9.91L52-9.91Q52-5.86 53.07-1.76L53.07-1.76Q53.05-1.39 52.28-0.76 51.51-0.12 50.97-0.12L50.97-0.12Q46.87-0.68 43.87-3.52L43.87-3.52Q40.72-6.49 40.72-10.95 40.72-15.41 42.95-18.57 45.19-21.73 49.07-23.4 52.95-25.07 57.86-25.07ZM54.56 0.22L54.56 0.22Q60.42-5.4 60.42-14.94L60.42-14.94Q60.42-18.99 59.35-23.1L59.35-23.1Q59.37-23.46 60.14-24.1 60.91-24.73 61.45-24.73L61.45-24.73Q65.55-24.17 68.53-21.34L68.53-21.34Q71.7-18.36 71.7-13.9 71.7-9.45 69.47-6.29 67.23-3.13 63.35-1.45 59.47 0.22 54.56 0.22ZM78.75-6.3L78.75-6.3Q78.75-8.81 79.57-13.23 80.39-17.65 80.39-19.43 80.39-21.22 79.24-21.95L79.24-21.95Q79.24-22.34 79.95-23.38 80.66-24.41 81.17-24.41L81.17-24.41 90.72-24.41Q91.18-24.17 91.62-23.52 92.06-22.88 92.06-21.88 92.06-20.87 91-15.39 89.94-9.91 89.94-6.84L89.94-6.84Q89.94-5.27 90.73-4.46 91.52-3.64 92.77-3.64L92.77-3.64Q92.72-3.32 92.72-2.83L92.72-2.83Q92.72-1.76 92.43-1.44L92.43-1.44Q91.23-0.68 89.27-0.23 87.3 0.22 85.49 0.22L85.49 0.22Q78.75 0.22 78.75-6.3ZM97.19-0.05L97.19-0.05Q95.26-1.42 95.26-3.39 95.26-5.37 96.3-12.26 97.33-19.14 97.63-22.8L97.63-22.8Q97.63-23.12 98.42-23.77 99.21-24.41 99.78-24.41L99.78-24.41 109.69-24.41Q108.37-18.75 107.56-13.77 106.76-8.79 106.76-6.98 106.76-5.18 107.21-4.32 107.66-3.47 108.64-2.69L108.64-2.69Q108.64-2.34 107.93-1.55 107.22-0.76 106.64-0.51L106.64-0.51Q103.49-0.05 97.19-0.05ZM137.71-24.15L137.71-24.15Q140.52-23.56 142.22-21.61 143.91-19.65 143.91-17.69 143.91-15.72 142.18-14.78 140.45-13.84 138.71-13.84 136.98-13.84 135.25-14.5L135.25-14.5Q135.42-16.8 135.42-18.69 135.42-20.58 135.1-22.56L135.1-22.56Q135.17-23.1 136.09-23.62 137-24.15 137.71-24.15ZM133.59-24.8L133.59-24.8Q131.05-22.85 129.37-19.51 127.7-16.16 127.7-13.13 127.7-10.11 128.43-8.3 129.17-6.49 130.51-5.4L130.51-5.4Q133.17-3.22 137.42-3.22L137.42-3.22Q139.57-3.22 142.01-3.78L142.01-3.78Q139.98-1.37 137.08-0.46 134.17 0.44 129.88 0.44 125.58 0.44 122.47-0.85 119.35-2.15 117.47-4.83 115.59-7.52 115.59-11.39 115.59-15.26 117.6-18.47 119.6-21.68 122.94-23.41 126.29-25.15 130.31-25.15L130.31-25.15Q131.61-25.15 133.59-24.8ZM167.08 0.24L167.08 0.24Q165.66-1.12 165.66-3.27 165.66-5.42 166.75-11.47 167.84-17.53 167.84-18.93 167.84-20.34 167.17-20.96 166.49-21.58 165.42-21.58L165.42-21.58Q165.64-23.05 166.25-23.78L166.25-23.78Q167.15-24.22 169.09-24.58 171.03-24.95 172.7-24.95L172.7-24.95Q175.94-24.95 177.57-23.46 179.19-21.97 179.19-18.75L179.19-18.75Q179.19-16.94 178.41-12.4 177.63-7.86 177.63-6.84 177.63-5.81 177.71-5.3 177.8-4.79 177.86-4.49 177.92-4.2 178.19-3.82 178.46-3.44 178.53-3.36 178.6-3.27 179.02-2.87 179.43-2.47 179.51-2.39L179.51-2.39Q179.51-2.05 178.8-1.26 178.09-0.46 177.5-0.22L177.5-0.22Q174.38 0.24 167.08 0.24ZM160.51-1.66L160.51-1.66Q160.51-1.32 159.73-0.66 158.95 0 158.36 0L158.36 0 148.31 0Q149.38-4.59 150.78-15.33 152.19-26.07 152.72-32.18L152.72-32.18Q152.72-32.5 153.51-33.14 154.29-33.79 154.85-33.79L154.85-33.79 165.13-33.79Q163.83-28.42 162.44-18.3 161.05-8.18 160.51-1.66ZM195.93 0L185.68 0Q187.8-8.98 188.93-22.66L188.93-22.66Q188.93-22.97 189.73-23.61 190.54-24.24 191.08-24.24L191.08-24.24 201.31-24.24Q199.18-15.11 198.06-1.61L198.06-1.61Q198.06-1.29 197.28-0.65 196.5 0 195.93 0L195.93 0ZM199.94-27.54L199.94-27.54 189.73-27.54Q190.2-29.42 190.34-31.23L190.34-31.23Q190.34-31.57 191.13-32.21 191.91-32.86 192.47-32.86L192.47-32.86 202.72-32.86Q202.4-31.71 202.06-29.15L202.06-29.15Q202.06-28.81 201.29-28.17 200.52-27.54 199.94-27.54ZM216.68 0L216.68 0 206.43 0Q208.97-10.69 209.95-22.58L209.95-22.58Q209.95-22.88 210.73-23.47 211.51-24.07 212.38-24.22 213.24-24.37 216.62-24.62 220-24.88 221.86-24.88L221.86-24.88Q219.88-14.65 218.81-1.61L218.81-1.61Q218.81-1.29 218.03-0.65 217.25 0 216.68 0ZM225.5 0.24L225.5 0.24Q224.08-1.12 224.08-3.27 224.08-5.42 225.17-11.47 226.25-17.53 226.25-18.93 226.25-20.34 225.58-20.96 224.91-21.58 223.84-21.58L223.84-21.58Q224.06-23.05 224.67-23.78L224.67-23.78Q225.57-24.22 227.51-24.58 229.45-24.95 231.11-24.95L231.11-24.95Q234.36-24.95 235.98-23.46 237.61-21.97 237.61-18.75L237.61-18.75Q237.61-16.94 236.83-12.4 236.04-7.86 236.04-6.84 236.04-5.81 236.13-5.3 236.22-4.79 236.28-4.49 236.34-4.2 236.61-3.82 236.87-3.44 236.95-3.36 237.02-3.27 237.44-2.87 237.85-2.47 237.92-2.39L237.92-2.39Q237.92-2.05 237.22-1.26 236.51-0.46 235.92-0.22L235.92-0.22Q232.8 0.24 225.5 0.24ZM262.78-24.88L262.78-24.88Q260.19-23 258.28-19.37 256.38-15.75 256.38-12.21L256.38-12.21Q256.38-7.64 259.46-5.15L259.46-5.15Q259.46-4.79 258.67-4.14 257.89-3.49 257.33-3.49L257.33-3.49Q248.32-3.49 245.95-9.57L245.95-9.57Q245.3-11.25 245.3-13.37 245.3-15.48 246.22-17.53 247.15-19.58 248.93-21.25 250.71-22.92 253.62-23.93 256.53-24.93 260.19-24.93L260.19-24.93Q261.02-24.93 262.78-24.88ZM264.29-23L264.29-23Q264.29-23.32 265.07-24 265.85-24.68 266.44-24.68L266.44-24.68Q267.88-24.68 270.66-24.3 273.44-23.93 276.03-23.14L276.03-23.14Q274.54-15.92 272.64-0.68L272.64-0.68Q271.13 11.4 259.28 11.4L259.28 11.4Q257.48 11.4 255.99 11.21L255.99 11.21Q258.11 9.23 259.31 6.4L259.31 6.4Q260.68 3.13 261.16 0.88L261.16 0.88Q262.8-6.59 263.54-13.29 264.29-20 264.29-23ZM251.74 10.62L251.74 10.62Q248.79 10.33 246.69 8.79 244.59 7.25 244.59 5.42 244.59 3.59 246.03 2.32L246.03 2.32Q248.71-0.07 253.57-0.07L253.57-0.07Q255.16-0.07 256.55 0.24L256.55 0.24Q255.26 1.54 254.47 3.42 253.69 5.3 253.69 6.76 253.69 8.23 253.89 8.98L253.89 8.98Q253.89 9.35 253.1 9.99 252.3 10.62 251.74 10.62ZM317.85-1.49L317.85-1.49Q312.84 0.12 307.86 0.12L307.86 0.12Q298.27 0.12 298.27-7.52L298.27-7.52Q298.27-9.18 298.98-14.15 299.68-19.12 299.68-21.01 299.68-22.9 299.51-23.9L299.51-23.9Q302.86-25.39 305.4-27.27 307.94-29.15 310.33-31.88L310.33-31.88Q311.55-32.25 313.5-32.25L313.5-32.25Q311.87-26.49 310.9-20.41 309.94-14.33 309.94-11.44 309.94-8.54 310.35-7.26 310.77-5.98 311.7-5.27L311.7-5.27Q313.33-4.03 316.87-4.03L316.87-4.03Q317.73-4.03 318.68-4.1L318.68-4.1Q318.46-2.49 317.85-1.49ZM313.58-18.46L313.58-18.46Q313.8-21.85 314.67-24.76L314.67-24.76Q317.07-23.75 320.02-23.34L320.02-23.34Q320.22-22.97 320.39-22.13 320.56-21.29 320.56-20.8L320.56-20.8Q317.17-19.87 313.58-18.46ZM342.04 0.24L342.04 0.24Q340.62-1.12 340.62-3.27 340.62-5.42 341.71-11.47 342.8-17.53 342.8-18.93 342.8-20.34 342.13-20.96 341.45-21.58 340.38-21.58L340.38-21.58Q340.6-23.05 341.21-23.78L341.21-23.78Q342.11-24.22 344.05-24.58 346-24.95 347.66-24.95L347.66-24.95Q350.9-24.95 352.53-23.46 354.15-21.97 354.15-18.75L354.15-18.75Q354.15-16.94 353.37-12.4 352.59-7.86 352.59-6.84 352.59-5.81 352.67-5.3 352.76-4.79 352.82-4.49 352.88-4.2 353.15-3.82 353.42-3.44 353.49-3.36 353.56-3.27 353.98-2.87 354.39-2.47 354.47-2.39L354.47-2.39Q354.47-2.05 353.76-1.26 353.05-0.46 352.47-0.22L352.47-0.22Q349.34 0.24 342.04 0.24ZM335.47-1.66L335.47-1.66Q335.47-1.32 334.69-0.66 333.91 0 333.32 0L333.32 0 323.27 0Q324.34-4.59 325.74-15.33 327.15-26.07 327.68-32.18L327.68-32.18Q327.68-32.5 328.47-33.14 329.25-33.79 329.81-33.79L329.81-33.79 340.09-33.79Q338.79-28.42 337.4-18.3 336.01-8.18 335.47-1.66ZM383-24.27L383-24.27Q386.33-23.12 388.05-21.06 389.77-18.99 389.77-16.65L389.77-16.65Q389.77-13.45 387.01-11.23 384.25-9.01 379.49-9.01L379.49-9.01Q378-9.01 376.22-9.5L376.22-9.5Q378.81-11.11 379.71-13.7L379.71-13.7Q380.49-15.94 380.49-18.97L380.49-18.97Q380.49-19.56 380.37-22.56L380.37-22.56Q380.34-22.88 381.36-23.56 382.37-24.24 383-24.27ZM379.05-24.66L379.05-24.66Q376.02-22.61 374.25-19.26 372.48-15.92 372.48-12.11 372.48-8.3 375.41-5.91 378.34-3.52 383.96-3.52L383.96-3.52Q385.49-3.52 387.25-3.78L387.25-3.78Q386.11-1.98 382.83-0.77 379.56 0.44 375.97 0.44 372.38 0.44 369.85-0.28 367.31-1 365.32-2.42 363.33-3.83 362.18-6.12 361.03-8.4 361.03-11.15 361.03-13.89 361.89-16.11 362.74-18.33 364.23-19.92 365.72-21.51 367.7-22.66L367.7-22.66Q371.63-24.88 376.75-24.88L376.75-24.88Q378.02-24.88 379.05-24.66ZM424.45-25.1L424.45-25.1Q423.06-23.78 423.06-22.31L423.06-22.31Q423.06-18.9 428.26-15.23L428.26-15.23Q430.61-13.57 431.93-12.4L431.93-12.4Q434.88-9.77 434.88-6.68 434.88-3.59 431.79-1.7 428.7 0.2 423.14 0.2L423.14 0.2Q423.77-1.22 423.77-2.37 423.77-3.52 423.12-4.6 422.48-5.69 421.45-6.59 420.43-7.5 419.18-8.41 417.94-9.33 416.69-10.28 415.45-11.23 414.42-12.23L414.42-12.23Q412.1-14.5 412.1-17.14L412.1-17.14Q412.1-20.04 414.25-21.88L414.25-21.88Q417.94-24.98 424.45-25.1ZM428.24-25.02L428.24-25.02Q431.68-25.02 434.15-23.67 436.61-22.31 436.61-20.36L436.61-20.36Q436.61-17.33 430.95-16.65L430.95-16.65Q431-16.82 431-17.19L431-17.19Q431-19.04 429.83-20.62 428.65-22.19 426.55-23.14L426.55-23.14Q426.55-23.54 427.09-24.22 427.63-24.9 428.24-25.02ZM418.86 0.1L418.86 0.1Q417.64 0.2 417.06 0.2L417.06 0.2Q413.52 0.2 411.17-0.96 408.83-2.12 408.83-3.98L408.83-3.98Q408.83-7.71 414.47-8.69L414.47-8.69Q414.27-7.64 414.31-6.85 414.35-6.05 414.85-5.29 415.35-4.52 416.25-3.91L416.25-3.91Q417.86-2.83 420.26-1.93L420.26-1.93Q420.26-1.56 419.8-0.84 419.35-0.12 418.86 0.1ZM470.13-8.96L470.13-8.96 469.96-5.35Q469.96-4.2 470.46-3.67 470.96-3.15 472.16-3.15L472.16-3.15Q471.91-1.64 471.35-0.66L471.35-0.66Q467.88 0.37 464.1 0.37 460.32 0.37 459.23-0.45 458.14-1.27 458.14-2.62 458.14-3.98 458.47-6.15 458.8-8.33 458.8-9.59L458.8-9.59Q458.8-11.84 456.26-12.3L456.26-12.3Q456.48-13.5 457.09-14.21L457.09-14.21Q459.44-14.92 460.56-16.33 461.68-17.75 461.68-19.03 461.68-20.31 461.2-21.01 460.71-21.7 460.02-21.7 459.34-21.7 458.68-21.48L458.68-21.48Q458.9-22.95 459.51-23.68L459.51-23.68Q462.39-25.07 465.11-25.07 467.84-25.07 469.42-23.85 471.01-22.63 471.01-20.74 471.01-18.85 470.17-17.57 469.33-16.28 467.93-15.48L467.93-15.48Q465.2-13.84 461.66-13.5L461.66-13.5Q465.81-13.5 467.97-12.3 470.13-11.11 470.13-8.96ZM453.04-1.66L453.04-1.66Q453.04-1.32 452.26-0.66 451.48 0 450.89 0L450.89 0 440.83 0Q441.91-4.59 443.31-15.33 444.72-26.07 445.25-32.18L445.25-32.18Q445.25-32.5 446.03-33.14 446.82-33.79 447.38-33.79L447.38-33.79 457.66-33.79Q456.36-28.42 454.97-18.3 453.58-8.18 453.04-1.66ZM479.28-7.67L479.28-7.67Q479.28-9.67 480-13.4 480.72-17.14 480.72-18.8L480.72-18.8Q480.72-21.39 479.36-21.95L479.36-21.95Q479.36-22.34 480.07-23.38 480.77-24.41 481.29-24.41L481.29-24.41 490.78-24.41Q491.34-24.22 491.73-23.65 492.13-23.07 492.13-22.05 492.13-21.02 491.64-18.75L491.64-18.75Q490.17-11.89 490.17-8.57L490.17-8.57Q490.17-7.03 491.09-6.2 492-5.37 493.3-5.37L493.3-5.37Q493.1-3.96 492.47-3.17L492.47-3.17Q489.83-1.51 486.32-1.51L486.32-1.51Q479.28-1.51 479.28-7.67ZM497.69-23L497.69-23Q497.69-23.29 498.46-23.8 499.23-24.32 499.84-24.32L499.84-24.32 509.44-24.32Q507.48-14.99 506.19-2.17L506.19-2.17Q505.21 7.3 500.28 9.86L500.28 9.86Q497.3 11.4 492.42 11.4L492.42 11.4Q491.66 11.4 490 11.3L490 11.3Q492.08 8.86 493.19 5.53 494.3 2.2 495.19-2.38 496.08-6.96 496.89-13.24 497.69-19.53 497.72-20.9 497.74-22.27 497.69-23ZM485.09 10.69L485.09 10.69Q481.87 10.42 479.93 9.2 477.99 7.98 477.99 6.26 477.99 4.54 479.53 3.34L479.53 3.34Q482.53 1 487.9 1L487.9 1Q489.61 1 491.37 1.29L491.37 1.29Q489.95 2.66 489.1 4.28 488.24 5.91 488.24 7.06 488.24 8.2 488.46 9.06L488.46 9.06Q488.46 9.42 487.23 10.06 486 10.69 485.09 10.69ZM533.55-24.46L533.55-24.46 544.49-24.46Q545.03-20.17 545.93-16.87L545.93-16.87Q547.64-10.62 549.74-10.62L549.74-10.62Q550.25-10.62 550.74-10.72L550.74-10.72Q549.98-9.3 548.36-5.47 546.73-1.64 546.64-1.43 546.54-1.22 545.83-0.61 545.12 0 544.56 0L544.56 0 538.14 0Q537.16-5.37 532.53-19.12L532.53-19.12 531.28-22.85Q531.28-23.19 532.11-23.83 532.94-24.46 533.55-24.46ZM550.84-24.46L550.84-24.46 561.77-24.46Q561.97-22.63 562.16-20.61 562.36-18.58 562.56-17.13 562.75-15.67 563.01-14.61 563.26-13.55 563.63-12.6L563.63-12.6Q564.34-10.62 565.56-10.62L565.56-10.62Q566.07-10.62 566.58-10.72L566.58-10.72Q565.83-9.33 564.24-5.6 562.65-1.88 562.51-1.55 562.36-1.22 561.65-0.61 560.94 0 560.41 0L560.41 0 554.01 0Q553.01-5.37 551.42-12.23 549.84-19.09 548.57-22.85L548.57-22.85Q548.57-23.19 549.4-23.83 550.23-24.46 550.84-24.46ZM567.22-22.8L567.22-22.8Q567.22-23.12 568.05-23.77 568.88-24.41 569.46-24.41L569.46-24.41 575.89-24.41Q575.23-23.44 572.27-19.36 569.32-15.28 568.37-13.57L568.37-13.57Q568.19-13.26 567.44-12.9 566.68-12.55 566.1-12.55L566.1-12.55Q567.29-16.55 567.29-20.9L567.29-20.9Q567.29-21.85 567.22-22.8ZM587.43 0L577.18 0Q579.3-8.98 580.42-22.66L580.42-22.66Q580.42-22.97 581.23-23.61 582.04-24.24 582.57-24.24L582.57-24.24 592.8-24.24Q590.68-15.11 589.55-1.61L589.55-1.61Q589.55-1.29 588.77-0.65 587.99 0 587.43 0L587.43 0ZM591.43-27.54L591.43-27.54 581.23-27.54Q581.69-29.42 581.84-31.23L581.84-31.23Q581.84-31.57 582.62-32.21 583.4-32.86 583.96-32.86L583.96-32.86 594.22-32.86Q593.9-31.71 593.56-29.15L593.56-29.15Q593.56-28.81 592.79-28.17 592.02-27.54 591.43-27.54ZM617.68-1.49L617.68-1.49Q612.67 0.12 607.69 0.12L607.69 0.12Q598.1 0.12 598.1-7.52L598.1-7.52Q598.1-9.18 598.81-14.15 599.51-19.12 599.51-21.01 599.51-22.9 599.34-23.9L599.34-23.9Q602.69-25.39 605.23-27.27 607.76-29.15 610.16-31.88L610.16-31.88Q611.38-32.25 613.33-32.25L613.33-32.25Q611.7-26.49 610.73-20.41 609.77-14.33 609.77-11.44 609.77-8.54 610.18-7.26 610.6-5.98 611.52-5.27L611.52-5.27Q613.16-4.03 616.7-4.03L616.7-4.03Q617.56-4.03 618.51-4.1L618.51-4.1Q618.29-2.49 617.68-1.49ZM613.4-18.46L613.4-18.46Q613.62-21.85 614.5-24.76L614.5-24.76Q616.9-23.75 619.85-23.34L619.85-23.34Q620.05-22.97 620.22-22.13 620.39-21.29 620.39-20.8L620.39-20.8Q616.99-19.87 613.4-18.46ZM641.87 0.24L641.87 0.24Q640.45-1.12 640.45-3.27 640.45-5.42 641.54-11.47 642.63-17.53 642.63-18.93 642.63-20.34 641.95-20.96 641.28-21.58 640.21-21.58L640.21-21.58Q640.43-23.05 641.04-23.78L641.04-23.78Q641.94-24.22 643.88-24.58 645.82-24.95 647.48-24.95L647.48-24.95Q650.73-24.95 652.35-23.46 653.98-21.97 653.98-18.75L653.98-18.75Q653.98-16.94 653.2-12.4 652.42-7.86 652.42-6.84 652.42-5.81 652.5-5.3 652.59-4.79 652.65-4.49 652.71-4.2 652.98-3.82 653.25-3.44 653.32-3.36 653.39-3.27 653.81-2.87 654.22-2.47 654.3-2.39L654.3-2.39Q654.3-2.05 653.59-1.26 652.88-0.46 652.29-0.22L652.29-0.22Q649.17 0.24 641.87 0.24ZM635.3-1.66L635.3-1.66Q635.3-1.32 634.52-0.66 633.74 0 633.15 0L633.15 0 623.09 0Q624.17-4.59 625.57-15.33 626.98-26.07 627.51-32.18L627.51-32.18Q627.51-32.5 628.29-33.14 629.08-33.79 629.64-33.79L629.64-33.79 639.92-33.79Q638.62-28.42 637.23-18.3 635.84-8.18 635.3-1.66ZM695.11-12.77L695.11-12.77Q695.18-13.38 695.56-14.17 695.94-14.97 696.4-14.99L696.4-14.99Q701.78-15.26 709.05-15.26L709.05-15.26Q708.34-7.98 707.1-2.78L707.1-2.78Q706.81-2.39 705.88-1.67 704.95-0.95 704.56-0.76L704.56-0.76Q703.17-0.34 700.31 0.07 697.45 0.49 694.72 0.49L694.72 0.49Q696.58-0.51 698.59-3.6 700.6-6.69 700.6-8.39 700.6-10.08 698.82-11.43 697.04-12.77 695.11-12.77ZM705.63-18.43L705.63-18.43Q704.71-22.97 703.49-25.99 702.26-29 699.97-31.62L699.97-31.62Q700.02-32.06 700.8-32.64 701.58-33.23 702.12-33.23L702.12-33.23Q706.39-32.76 710.05-31.47L710.05-31.47Q710-30.08 709.43-26.22 708.86-22.36 708.32-20.07L708.32-20.07Q708.22-19.68 707.23-19.06 706.24-18.43 705.63-18.43ZM693.21-1.17L693.21-1.17Q693.21-0.81 692.44-0.16 691.67 0.49 691.06 0.49L691.06 0.49Q685.81-0.46 682.15-4.3L682.15-4.3Q680.36-6.18 679.33-8.8 678.29-11.43 678.29-14.39 678.29-17.36 679.02-20.13 679.75-22.9 681.33-25.4 682.9-27.91 685.14-29.79 687.37-31.67 690.58-32.76 693.79-33.86 697.6-33.86L697.6-33.86Q698.16-33.86 698.5-33.84L698.5-33.84Q694.94-30.76 692.94-24.96 690.94-19.17 690.94-12.46 690.94-5.76 693.21-1.17ZM726.97-1.66L726.97-1.66Q726.97-1.32 726.19-0.66 725.41 0 724.82 0L724.82 0 714.76 0Q715.84-4.59 717.24-15.33 718.64-26.07 719.18-32.18L719.18-32.18Q719.18-32.5 719.96-33.14 720.74-33.79 721.3-33.79L721.3-33.79 731.58-33.79Q730.29-28.42 728.9-18.3 727.51-8.18 726.97-1.66ZM753.46-25.07L753.46-25.07Q747.6-19.46 747.6-9.91L747.6-9.91Q747.6-5.86 748.67-1.76L748.67-1.76Q748.65-1.39 747.88-0.76 747.11-0.12 746.57-0.12L746.57-0.12Q742.47-0.68 739.47-3.52L739.47-3.52Q736.32-6.49 736.32-10.95 736.32-15.41 738.55-18.57 740.78-21.73 744.67-23.4 748.55-25.07 753.46-25.07ZM750.16 0.22L750.16 0.22Q756.02-5.4 756.02-14.94L756.02-14.94Q756.02-18.99 754.94-23.1L754.94-23.1Q754.97-23.46 755.74-24.1 756.51-24.73 757.04-24.73L757.04-24.73Q761.15-24.17 764.12-21.34L764.12-21.34Q767.3-18.36 767.3-13.9 767.3-9.45 765.06-6.29 762.83-3.13 758.95-1.45 755.07 0.22 750.16 0.22ZM797.08-24.88L797.08-24.88Q799.86-24.88 799.86-21.39L799.86-21.39Q799.86-19.21 799.11-17.05 798.35-14.89 797.2-13.75L797.2-13.75Q795.59-14.87 793.24-15.61 790.88-16.36 788.73-16.43L788.73-16.43Q788.93-17.77 789.51-19.29L789.51-19.29Q793.44-24.88 797.08-24.88ZM782.46 0L782.46 0 772.23 0Q774.72-10.64 775.74-22.58L775.74-22.58Q775.74-22.85 776.54-23.46 777.33-24.07 778.17-24.22 779.01-24.37 782.54-24.62 786.07-24.88 787.95-24.88L787.95-24.88Q785.53-12.79 784.58-1.61L784.58-1.61Q784.58-1.29 783.8-0.65 783.02 0 782.46 0ZM804.06-7.67L804.06-7.67Q804.06-9.67 804.78-13.4 805.5-17.14 805.5-18.8L805.5-18.8Q805.5-21.39 804.13-21.95L804.13-21.95Q804.13-22.34 804.84-23.38 805.55-24.41 806.06-24.41L806.06-24.41 815.56-24.41Q816.12-24.22 816.51-23.65 816.9-23.07 816.9-22.05 816.9-21.02 816.41-18.75L816.41-18.75Q814.95-11.89 814.95-8.57L814.95-8.57Q814.95-7.03 815.87-6.2 816.78-5.37 818.07-5.37L818.07-5.37Q817.88-3.96 817.24-3.17L817.24-3.17Q814.61-1.51 811.09-1.51L811.09-1.51Q804.06-1.51 804.06-7.67ZM822.47-23L822.47-23Q822.47-23.29 823.24-23.8 824.01-24.32 824.62-24.32L824.62-24.32 834.21-24.32Q832.26-14.99 830.97-2.17L830.97-2.17Q829.99 7.3 825.06 9.86L825.06 9.86Q822.08 11.4 817.2 11.4L817.2 11.4Q816.44 11.4 814.78 11.3L814.78 11.3Q816.85 8.86 817.96 5.53 819.08 2.2 819.97-2.38 820.86-6.96 821.66-13.24 822.47-19.53 822.49-20.9 822.52-22.27 822.47-23ZM809.87 10.69L809.87 10.69Q806.65 10.42 804.71 9.2 802.77 7.98 802.77 6.26 802.77 4.54 804.31 3.34L804.31 3.34Q807.31 1 812.68 1L812.68 1Q814.39 1 816.15 1.29L816.15 1.29Q814.73 2.66 813.88 4.28 813.02 5.91 813.02 7.06 813.02 8.2 813.24 9.06L813.24 9.06Q813.24 9.42 812.01 10.06 810.77 10.69 809.87 10.69Z" opacity="1" transform="matrix(1,0,0,1,0,0)" fill="#000000" class="slogan-text-1" data-fill-palette-color="secondary" id="text-1"></path></svg></g></svg></g></svg></g></svg></g></svg></g><defs></defs></svg><rect width="254.59609442584812" height="280" fill="none" stroke="none" visibility="hidden"></rect></g></svg></g></svg>